HIERARCHY
ROOT root
{
	OFFSET	0.000000	0.000000	0.000000
	CHANNELS 6 Xposition Yposition Zposition Zrotation Yrotation Xrotation
	JOINT lhipjoint
	{
		OFFSET	0.000000	0.000000	0.000000
		CHANNELS 3 Zrotation Yrotation Xrotation
		JOINT lfemur
		{
			OFFSET	1.645494	-1.708786	0.845660
			CHANNELS 3 Zrotation Yrotation Xrotation
			JOINT ltibia
			{
				OFFSET	2.249633	-6.180820	0.000000
				CHANNELS 3 Zrotation Yrotation Xrotation
				JOINT lfoot
				{
					OFFSET	2.717752	-7.466968	0.000000
					CHANNELS 3 Zrotation Yrotation Xrotation
					JOINT ltoes
					{
						OFFSET	0.187679	-0.515643	2.247368
						CHANNELS 3 Zrotation Yrotation Xrotation
						End Site
						{
							OFFSET	0.000000	-0.000000	1.159350
						}
					}
				}
			}
		}
	}
	JOINT rhipjoint
	{
		OFFSET	0.000000	0.000000	0.000000
		CHANNELS 3 Zrotation Yrotation Xrotation
		JOINT rfemur
		{
			OFFSET	-1.588298	-1.708789	0.845662
			CHANNELS 3 Zrotation Yrotation Xrotation
			JOINT rtibia
			{
				OFFSET	-2.250064	-6.182003	0.000000
				CHANNELS 3 Zrotation Yrotation Xrotation
				JOINT rfoot
				{
					OFFSET	-2.728293	-7.495929	0.000000
					CHANNELS 3 Zrotation Yrotation Xrotation
					JOINT rtoes
					{
						OFFSET	-0.215414	-0.591846	2.106425
						CHANNELS 3 Zrotation Yrotation Xrotation
						End Site
						{
							OFFSET	-0.000000	-0.000000	1.098380
						}
					}
				}
			}
		}
	}
	JOINT lowerback
	{
		OFFSET	0.000000	0.000000	0.000000
		CHANNELS 3 Zrotation Yrotation Xrotation
		JOINT upperback
		{
			OFFSET	0.031419	2.104964	-0.110379
			CHANNELS 3 Zrotation Yrotation Xrotation
			JOINT thorax
			{
				OFFSET	-0.018626	2.108971	-0.069557
				CHANNELS 3 Zrotation Yrotation Xrotation
				JOINT lowerneck
				{
					OFFSET	-0.034945	2.110023	-0.018114
					CHANNELS 3 Zrotation Yrotation Xrotation
					JOINT upperneck
					{
						OFFSET	-0.022675	1.732376	0.004511
						CHANNELS 3 Zrotation Yrotation Xrotation
						JOINT head
						{
							OFFSET	-0.058084	1.547243	-0.617485
							CHANNELS 3 Zrotation Yrotation Xrotation
							End Site
							{
								OFFSET	-0.013955	1.714682	-0.210818
							}
						}
					}
				}
				JOINT lclavicle
				{
					OFFSET	-0.034945	2.110023	-0.018114
					CHANNELS 3 Zrotation Yrotation Xrotation
					JOINT lhumerus
					{
						OFFSET	3.448981	0.502979	0.219205
						CHANNELS 3 Zrotation Yrotation Xrotation
						JOINT lradius
						{
							OFFSET	5.419170	-0.000000	-0.000000
							CHANNELS 3 Zrotation Yrotation Xrotation
							JOINT lwrist
							{
								OFFSET	2.443730	-0.000000	0.000000
								CHANNELS 3 Zrotation Yrotation Xrotation
								JOINT lhand
								{
									OFFSET	1.221860	-0.000000	0.000000
									CHANNELS 3 Zrotation Yrotation Xrotation
									JOINT lfingers
									{
										OFFSET	0.727502	-0.000000	0.000000
										CHANNELS 3 Zrotation Yrotation Xrotation
										End Site
										{
											OFFSET	0.586531	-0.000000	0.000000
										}
									}
								}
								JOINT lthumb
								{
									OFFSET	1.221860	-0.000000	0.000000
									CHANNELS 3 Zrotation Yrotation Xrotation
									End Site
									{
										OFFSET	0.595487	-0.000000	0.595487
									}
								}
							}
						}
					}
				}
				JOINT rclavicle
				{
					OFFSET	-0.034945	2.110023	-0.018114
					CHANNELS 3 Zrotation Yrotation Xrotation
					JOINT rhumerus
					{
						OFFSET	-3.230153	0.558301	0.310511
						CHANNELS 3 Zrotation Yrotation Xrotation
						JOINT rradius
						{
							OFFSET	-5.589760	-0.000102	0.000137
							CHANNELS 3 Zrotation Yrotation Xrotation
							JOINT rwrist
							{
								OFFSET	-2.480600	-0.000000	0.000000
								CHANNELS 3 Zrotation Yrotation Xrotation
								JOINT rhand
								{
									OFFSET	-1.240300	-0.000000	0.000000
									CHANNELS 3 Zrotation Yrotation Xrotation
									JOINT rfingers
									{
										OFFSET	-0.816009	-0.000000	0.000000
										CHANNELS 3 Zrotation Yrotation Xrotation
										End Site
										{
											OFFSET	-0.657887	-0.000000	0.000000
										}
									}
								}
								JOINT rthumb
								{
									OFFSET	-1.240300	-0.000000	0.000000
									CHANNELS 3 Zrotation Yrotation Xrotation
									End Site
									{
										OFFSET	-0.667932	-0.000000	0.667932
									}
								}
							}
						}
					}
				}
			}
		}
	}
}
MOTION
Frames:	10
Frame Time:	0.008333
	0.270073	17.456200	0.318604	-153.323013	27.080801	-156.418015	0.000000	0.000000	0.000000	-0.916663	-14.282814	-13.627458	3.803677	11.894472	35.359684	178.302887	-30.480785	-11.147202	2.681307	-10.160346	-29.497549	0.000000	0.000000	0.000000	-45.515774	31.908878	-44.881348	-3.394818	-11.308297	33.326820	177.533264	43.705204	-39.874229	-10.033599	-17.428703	59.600609	11.488799	-1.852640	-0.279401	8.092202	-0.277711	-7.735571	2.203270	-0.064613	-8.291101	-14.188799	-22.601099	-3.646461	6.945920	-31.481701	28.863800	-0.024573	-14.347601	13.796000	-14.188801	-0.000000	0.000000	-5.484301	-27.067894	12.327367	67.730309	-58.040531	-40.840759	0.000000	0.000000	24.112589	43.476517	6.994926	6.586854	-7.125019	0.000000	0.000000	14.496752	39.172565	-2.134143	-14.188801	-0.000000	0.000000	20.662800	-2.565970	-13.658094	-13.794644	22.440380	-2.749233	-0.000000	-0.000003	16.158792	-9.333476	16.547554	-2.680088	7.125019	0.000000	0.000000	12.275711	-13.494609	9.292498
	0.282786	17.684500	0.223455	-153.772995	29.694401	-156.466003	0.000000	0.000000	0.000000	-2.765821	-13.109450	-11.204554	3.225773	11.051863	32.454987	177.876129	-30.684662	-8.134872	2.396143	-9.646576	-27.839649	0.000000	0.000000	0.000000	-45.559490	31.137505	-43.559162	-3.315281	-11.188736	32.919075	178.496323	44.350742	-37.049351	-9.955365	-17.384676	59.339081	11.587701	-2.052150	-0.759618	8.562640	-0.391351	-8.341120	2.686830	-0.076525	-8.716210	-15.182199	-22.106100	-3.107770	5.398601	-30.248194	29.995401	-0.167340	-14.038400	13.905900	-15.182202	-0.000000	0.000000	-3.614192	-24.431824	14.476238	62.321651	-56.897507	-36.279507	0.000000	0.000000	24.630192	44.545582	6.011439	5.885199	-7.125019	0.000000	0.000000	15.245506	37.964272	-2.716848	-15.182202	-0.000000	0.000000	17.171183	-4.146278	-12.410937	-12.393419	20.392019	-2.237485	0.000001	0.000003	17.218994	-6.090970	11.372429	-1.205417	7.125019	0.000000	0.000000	14.694756	-18.738205	9.512337
	0.320285	17.925400	0.138480	-154.723999	31.980797	-156.570999	0.000000	0.000000	0.000000	-4.571677	-12.353316	-9.384328	2.727760	10.240738	29.759876	177.553970	-30.684263	-5.328430	1.688424	-8.184472	-23.275799	0.000000	0.000000	0.000000	-46.046322	30.354307	-41.972157	-3.242211	-11.077189	32.540642	178.258270	43.683933	-37.438370	-9.971615	-17.393860	59.393456	12.089600	-2.101010	-2.460670	8.287149	-0.777006	-8.403539	2.091590	-0.295021	-7.823378	-15.644004	-21.808903	-3.340760	4.761631	-29.603102	30.998100	-0.283329	-13.801600	14.278601	-15.644000	-0.000000	0.000000	-0.331605	-22.987844	15.552368	57.818100	-55.699936	-32.532021	0.000000	0.000000	25.944193	44.434982	6.794261	6.616398	-7.125019	0.000000	0.000000	15.303535	39.003876	-2.324904	-15.644000	-0.000000	0.000000	15.172086	-4.847538	-16.767817	-10.689474	17.810726	-1.679707	-0.000001	-0.000003	22.320194	-3.167090	6.112677	-0.337585	7.125019	0.000000	0.000000	17.264557	-23.866575	9.211907
	0.371981	18.182600	0.061559	-155.899994	34.076496	-156.590012	0.000000	0.000000	0.000000	-6.181767	-12.107324	-8.062310	2.309209	9.482444	27.316452	177.334778	-30.587223	-2.960452	0.839294	-5.843881	-16.332117	0.000000	0.000000	0.000000	-46.964165	29.973774	-40.288692	-3.175375	-10.973683	32.191170	177.038239	42.331512	-40.778214	-10.041145	-17.432926	59.625797	12.380400	-1.889720	-3.977640	7.788689	-0.781239	-8.652030	1.366420	-0.331942	-7.232481	-15.275702	-21.925604	-4.272221	3.634699	-29.483599	32.328495	-0.846758	-13.722399	14.749300	-15.275702	-0.000000	0.000000	3.011746	-21.865797	17.629045	51.536175	-53.596577	-27.405807	0.000000	0.000000	27.041391	45.219227	7.643712	7.634108	-7.125019	0.000000	0.000000	16.174770	40.231995	-1.960195	-15.275702	-0.000000	0.000000	13.473559	-6.698908	-22.723814	-9.464999	15.898395	-1.324616	-0.000001	-0.000003	28.827694	0.010407	5.772155	0.001044	7.125019	0.000000	0.000000	19.568125	-24.183231	10.431129
	0.436017	18.456200	-0.010507	-157.050995	36.112396	-156.466003	0.000000	0.000000	0.000000	-7.404988	-12.122059	-7.229859	1.984441	8.833594	25.276155	177.139572	-31.149212	-2.099958	0.102472	-2.064258	-5.683268	0.000000	0.000000	0.000000	-48.118015	30.173891	-38.611931	-3.115293	-10.879390	31.874187	174.883484	39.461163	-46.641193	-10.149330	-17.492973	59.986309	12.982601	-1.661140	-6.034990	7.199351	-0.829658	-8.999780	0.377694	-0.392792	-6.479219	-16.026102	-21.770298	-3.884530	3.409842	-29.161705	33.166302	-0.800359	-13.637099	15.129100	-16.026100	0.000000	-0.000000	5.801201	-21.156986	19.839237	45.921474	-51.212002	-22.954788	-0.000001	-0.000003	28.844896	46.094646	8.915765	9.147274	-7.125019	0.000000	0.000000	17.259300	42.066010	-1.291701	-16.026100	0.000000	-0.000000	11.887738	-8.614934	-28.955809	-8.650982	14.602478	-1.110484	0.000000	0.000000	36.343094	2.966691	5.522612	0.285766	7.125019	0.000000	0.000000	21.680775	-24.381935	11.615592
	0.518716	18.735399	-0.068356	-158.451996	38.096901	-156.614014	0.000000	0.000000	0.000000	-8.389810	-11.923663	-6.549101	1.756077	8.338367	23.746624	178.379715	-30.426805	-11.636953	2.020619	8.908891	25.510746	0.000000	0.000000	0.000000	-49.309120	30.449150	-36.850887	-3.063820	-10.797656	31.600464	172.744492	35.607517	-52.438610	-10.287857	-17.568577	60.446190	13.253299	-1.256010	-7.995780	6.556911	-0.569325	-9.560691	-0.468860	-0.282469	-5.990720	-17.582804	-21.693802	-2.360820	3.673391	-29.104502	33.633404	-0.426192	-13.747501	15.406300	-17.582800	0.000000	0.000000	7.905847	-21.313444	22.558083	40.688622	-48.472622	-18.953165	0.000000	0.000000	30.796598	48.165401	11.410501	12.462058	-7.125019	0.000000	0.000000	19.922903	45.813892	0.416787	-17.582800	0.000000	0.000000	10.041507	-11.604920	-32.386963	-8.217077	13.904129	-1.003648	0.000001	0.000003	41.823788	5.338428	4.625611	0.431755	7.125019	0.000000	0.000000	23.488789	-25.160082	12.287649
	0.614817	19.009001	-0.095678	-160.384003	40.103909	-157.162994	0.000000	0.000000	0.000000	-9.412436	-10.485703	-6.218903	1.619250	8.023378	22.785112	-179.940399	-25.998152	-18.739363	5.105768	13.501925	41.277641	0.000000	0.000000	0.000000	-50.833557	30.520691	-35.200527	-3.037638	-10.755733	31.460440	171.008713	31.429796	-57.223690	-10.439125	-17.649494	60.946209	13.031500	-1.766700	-10.340899	5.974729	-1.808210	-9.297011	-1.069880	-0.869778	-4.506451	-16.820097	-21.038298	-3.780910	3.177410	-27.982399	34.399097	-0.612873	-13.178000	15.675998	-16.820099	0.000000	0.000000	10.414460	-18.435101	24.271053	36.096745	-45.579575	-15.591543	0.000000	0.000000	32.819500	44.064503	10.360106	9.873742	-7.125019	0.000000	0.000000	15.654532	43.683922	-0.521991	-16.820099	0.000000	0.000000	8.905710	-10.722183	-39.410503	-7.723244	13.103252	-0.888329	-0.000001	-0.000003	50.366787	7.636833	3.595890	0.481825	7.125019	0.000000	0.000000	25.280928	-26.028370	12.845789
	0.708400	19.280300	-0.078370	-161.921997	42.021797	-157.509003	0.000000	0.000000	0.000000	-9.712872	-7.436527	-6.565693	1.558766	7.879232	22.347866	-179.355637	-23.135036	-20.595900	6.341737	14.751529	46.338299	0.000000	0.000000	0.000000	-52.116699	30.728704	-34.110844	-3.068292	-10.804791	31.624329	169.478012	27.087185	-61.623688	-10.529719	-17.697157	61.244614	12.921101	-2.009969	-12.093599	5.389520	-2.463140	-9.376480	-1.721360	-1.190140	-3.719750	-16.269505	-20.564703	-4.201450	2.716931	-27.197304	34.925602	-0.717104	-12.815499	15.729103	-16.269501	-0.000000	0.000000	12.263147	-16.607855	25.722383	32.562511	-42.991051	-13.122798	0.000001	0.000003	34.858692	40.554764	10.659839	8.994841	-7.125019	0.000000	0.000000	12.376418	43.544041	-0.452040	-16.269501	-0.000000	0.000000	7.843345	-11.110860	-44.449276	-7.527312	12.783767	-0.844445	0.000000	0.000000	57.524593	9.487201	2.475127	0.413491	7.125019	0.000000	0.000000	26.799194	-26.966270	13.128244
	0.821712	19.533800	-0.124166	-162.300995	43.166405	-157.447006	0.000000	0.000000	0.000000	-8.634303	-1.592595	-7.477385	1.593083	7.961406	22.596916	178.022079	-29.670889	-7.834058	4.819097	13.177127	40.035191	0.000000	0.000000	0.000000	-51.859184	32.068180	-31.798548	-3.157731	-10.946112	32.098358	168.004578	21.968943	-66.023003	-10.511657	-17.687702	61.185192	14.237401	-1.894680	-14.294801	4.994900	-2.786990	-9.389069	-2.949500	-1.355570	-2.734920	-17.017002	-20.374203	-3.421790	2.720929	-26.908405	35.082607	-0.507907	-12.799599	15.757900	-17.017002	-0.000000	0.000000	13.426761	-15.548752	27.341476	29.806574	-40.727024	-11.283213	0.000000	0.000000	36.285801	37.178677	11.612781	8.680557	-7.125019	0.000000	0.000000	9.271131	44.243652	-0.174637	-17.017002	-0.000000	0.000000	6.257065	-13.212251	-41.688236	-7.546080	12.814419	-0.848601	0.000000	0.000000	57.263889	10.893634	0.377818	0.072709	7.125019	0.000000	0.000000	28.287521	-28.779722	12.642962
	0.914241	19.776199	-0.055997	-162.544006	44.483612	-157.797012	0.000000	0.000000	0.000000	-7.218009	2.703063	-7.882393	1.761273	8.350043	23.782427	176.579346	-30.648933	11.251746	3.045072	10.767663	31.500259	0.000000	0.000000	0.000000	-51.599239	33.586189	-30.344013	-3.300913	-11.166937	32.844963	166.878128	17.679968	-69.507874	-10.496439	-17.679718	61.135078	14.683702	-2.736100	-14.740301	5.629671	-3.958260	-9.496591	-2.632200	-1.920800	-2.805510	-19.246002	-19.699802	-2.986620	2.851700	-25.685699	34.908909	0.046638	-12.569598	15.884898	-19.246000	0.000000	0.000000	12.780984	-12.208247	29.177328	27.327562	-38.489780	-9.702303	0.000000	0.000000	37.614296	33.629246	13.154837	8.607717	-7.125019	0.000000	0.000000	5.921702	45.574936	0.084337	-19.246000	0.000000	0.000000	4.142753	-11.587993	-50.905293	-7.635689	12.960611	-0.868586	-0.000001	0.000000	69.263802	11.745727	0.635421	0.132112	7.125019	0.000000	0.000000	28.799080	-28.497496	13.163437
